<svg width="162" height="48" viewBox="0 0 162 48" fill="none" xmlns="http://www.w3.org/2000/svg">
<g clip-path="url(#clip0_2270_2464)">
<path fill-rule="evenodd" clip-rule="evenodd" d="M24 48C37.2548 48 48 37.2548 48 24C48 10.7452 37.2548 0 24 0C10.7452 0 0 10.7452 0 24C0 37.2548 10.7452 48 24 48ZM24 48C34.162 48 42.4 39.762 42.4 29.6C42.4 19.438 34.162 11.2 24 11.2C13.838 11.2 5.6 19.438 5.6 29.6C5.6 39.762 13.838 48 24 48Z" fill="url(#paint0_linear_2270_2464)"/>
<path fill-rule="evenodd" clip-rule="evenodd" d="M22.56 24.1612C22.4802 24.0832 22.3792 24.0305 22.2695 24.0098C22.1599 23.9891 22.0466 24.0013 21.9439 24.045C21.8412 24.0886 21.7537 24.1616 21.6924 24.2549C21.6311 24.3481 21.5989 24.4574 21.5996 24.569L21.6658 34.9584C21.6665 35.0697 21.7 35.1783 21.7622 35.2706C21.8244 35.3629 21.9125 35.4348 22.0154 35.4773C22.1183 35.5197 22.2314 35.5309 22.3406 35.5092C22.4498 35.4876 22.5502 35.4343 22.6291 35.3558L25.363 32.6423C25.466 32.5401 25.6043 32.4815 25.7493 32.4785L29.6004 32.3989C29.7117 32.3967 29.8198 32.3616 29.9112 32.2981C30.0026 32.2346 30.0733 32.1455 30.1143 32.0421C30.1553 31.9386 30.1648 31.8253 30.1416 31.7164C30.1185 31.6075 30.0637 31.5079 29.9842 31.4301L22.56 24.1612Z" fill="white"/>
</g>
<path d="M80.8 35H76.832L75.264 30.488H65.728L64.16 35H60.16L68.288 12.6H72.704L80.8 35ZM70.496 16.92L66.944 27.032H74.048L70.496 16.92ZM85.6088 15.96C84.7448 16.824 83.4008 16.824 82.5048 15.96C81.6408 15.064 81.6408 13.72 82.5048 12.856C83.3688 11.96 84.7768 11.96 85.6408 12.856C86.5048 13.72 86.5048 15.064 85.6088 15.96ZM85.8008 35H82.3448V19H85.8008V35ZM95.8615 30.616L99.9575 19H103.638L97.4935 35.512C95.9575 39.64 93.3655 41.624 89.6855 41.4V38.168C91.8615 38.296 93.0775 37.24 93.9415 35.032L94.1015 34.712L87.3175 19H91.0935L95.8615 30.616ZM117.206 21.272V19H120.662V35H117.206V32.696C115.894 34.52 114.038 35.416 111.606 35.416C109.398 35.416 107.542 34.616 105.974 32.984C104.406 31.352 103.638 29.336 103.638 27C103.638 24.632 104.406 22.648 105.974 21.016C107.542 19.384 109.398 18.584 111.606 18.584C114.038 18.584 115.894 19.48 117.206 21.272ZM108.534 30.68C109.494 31.64 110.71 32.12 112.15 32.12C113.59 32.12 114.806 31.64 115.766 30.68C116.726 29.688 117.206 28.472 117.206 27C117.206 25.528 116.726 24.312 115.766 23.352C114.806 22.36 113.59 21.88 112.15 21.88C110.71 21.88 109.494 22.36 108.534 23.352C107.574 24.312 107.094 25.528 107.094 27C107.094 28.472 107.574 29.688 108.534 30.68ZM136.722 21.272V12.6H140.178V35H136.722V32.696C135.41 34.52 133.554 35.416 131.122 35.416C128.914 35.416 127.058 34.616 125.49 32.984C123.922 31.352 123.154 29.336 123.154 27C123.154 24.632 123.922 22.648 125.49 21.016C127.058 19.384 128.914 18.584 131.122 18.584C133.554 18.584 135.41 19.48 136.722 21.272ZM128.05 30.68C129.01 31.64 130.226 32.12 131.666 32.12C133.106 32.12 134.322 31.64 135.282 30.68C136.242 29.688 136.722 28.472 136.722 27C136.722 25.528 136.242 24.312 135.282 23.352C134.322 22.36 133.106 21.88 131.666 21.88C130.226 21.88 129.01 22.36 128.05 23.352C127.09 24.312 126.61 25.528 126.61 27C126.61 28.472 127.09 29.688 128.05 30.68ZM156.238 21.272V19H159.694V35H156.238V32.696C154.926 34.52 153.07 35.416 150.638 35.416C148.43 35.416 146.574 34.616 145.006 32.984C143.438 31.352 142.67 29.336 142.67 27C142.67 24.632 143.438 22.648 145.006 21.016C146.574 19.384 148.43 18.584 150.638 18.584C153.07 18.584 154.926 19.48 156.238 21.272ZM147.566 30.68C148.526 31.64 149.742 32.12 151.182 32.12C152.622 32.12 153.838 31.64 154.798 30.68C155.758 29.688 156.238 28.472 156.238 27C156.238 25.528 155.758 24.312 154.798 23.352C153.838 22.36 152.622 21.88 151.182 21.88C149.742 21.88 148.526 22.36 147.566 23.352C146.606 24.312 146.126 25.528 146.126 27C146.126 28.472 146.606 29.688 147.566 30.68Z" fill="white"/>
<defs>
<linearGradient id="paint0_linear_2270_2464" x1="24" y1="0" x2="24" y2="48" gradientUnits="userSpaceOnUse">
<stop stop-color="#FF5733"/>
<stop offset="1" stop-color="#FE7A36"/>
</linearGradient>
<clipPath id="clip0_2270_2464">
<rect width="48" height="48" fill="white"/>
</clipPath>
</defs>
</svg>
