<svg width="48" height="48" viewBox="0 0 48 48" fill="none" xmlns="http://www.w3.org/2000/svg">
<g id="Frame 14" clip-path="url(#clip0_2270_2458)">
<path id="Subtract" fill-rule="evenodd" clip-rule="evenodd" d="M24 48C37.2548 48 48 37.2548 48 24C48 10.7452 37.2548 0 24 0C10.7452 0 0 10.7452 0 24C0 37.2548 10.7452 48 24 48ZM24 48C34.162 48 42.4 39.762 42.4 29.6C42.4 19.438 34.162 11.2 24 11.2C13.838 11.2 5.6 19.438 5.6 29.6C5.6 39.762 13.838 48 24 48Z" fill="url(#paint0_linear_2270_2458)"/>
<path id="Vector" fill-rule="evenodd" clip-rule="evenodd" d="M22.56 24.1612C22.4802 24.0832 22.3792 24.0305 22.2695 24.0098C22.1599 23.9891 22.0466 24.0013 21.9439 24.045C21.8412 24.0886 21.7537 24.1616 21.6924 24.2549C21.6311 24.3481 21.5989 24.4574 21.5996 24.569L21.6658 34.9584C21.6665 35.0697 21.7 35.1783 21.7622 35.2706C21.8244 35.3629 21.9125 35.4348 22.0154 35.4773C22.1183 35.5197 22.2314 35.5309 22.3406 35.5092C22.4498 35.4876 22.5502 35.4343 22.6291 35.3558L25.363 32.6423C25.466 32.5401 25.6043 32.4815 25.7493 32.4785L29.6004 32.3989C29.7117 32.3967 29.8198 32.3616 29.9112 32.2981C30.0026 32.2346 30.0733 32.1455 30.1143 32.0421C30.1553 31.9386 30.1648 31.8253 30.1416 31.7164C30.1185 31.6075 30.0637 31.5079 29.9842 31.4301L22.56 24.1612Z" fill="white"/>
</g>
<defs>
<linearGradient id="paint0_linear_2270_2458" x1="24" y1="0" x2="24" y2="48" gradientUnits="userSpaceOnUse">
<stop stop-color="#FF5733"/>
<stop offset="1" stop-color="#FE7A36"/>
</linearGradient>
<clipPath id="clip0_2270_2458">
<rect width="48" height="48" fill="white"/>
</clipPath>
</defs>
</svg>
